<?xml version="1.0" standalone="no"?><!DOCTYPE svg PUBLIC "-//W3C//DTD SVG 1.1//EN" "http://www.w3.org/Graphics/SVG/1.1/DTD/svg11.dtd"><svg height="32" node-id="1" sillyvg="true" template-height="32" template-width="32" version="1.1" viewBox="0 0 32 32" width="32" xmlns="http://www.w3.org/2000/svg" xmlns:xlink="http://www.w3.org/1999/xlink"><defs node-id="83"><linearGradient gradientUnits="objectBoundingBox" id="paint9_linear_31_15" node-id="70" spreadMethod="pad" x1="23.5" x2="20.3827" y1="22.5" y2="16.0057"><stop offset="0" stop-color="#d40f31"></stop><stop offset="0.340515" stop-color="#ff2375"></stop><stop offset="1" stop-color="#ff278e"></stop></linearGradient><radialGradient cx="0" cy="0" fx="0" fy="0" gradientUnits="objectBoundingBox" id="paint0_radial_31_15" node-id="41" r="1" rev="11" spreadMethod="pad"><stop offset="0" stop-color="#fff478"></stop><stop offset="0.474827" stop-color="#ffb02e"></stop><stop offset="1" stop-color="#f70a8d"></stop></radialGradient><radialGradient cx="0" cy="0" fx="0" fy="0" gradientUnits="objectBoundingBox" id="paint1_radial_31_15" node-id="45" r="1" rev="10" spreadMethod="pad"><stop offset="0" stop-color="#fff478"></stop><stop offset="0.474827" stop-color="#ffb02e"></stop><stop offset="1" stop-color="#f70a8d"></stop></radialGradient><radialGradient cx="0" cy="0" fx="0" fy="0" gradientUnits="objectBoundingBox" id="paint2_radial_31_15" node-id="49" r="1" rev="9" spreadMethod="pad"><stop offset="0.787821" stop-color="#f59639" stop-opacity="0"></stop><stop offset="0.972509" stop-color="#ff7dce"></stop></radialGradient><radialGradient cx="0" cy="0" fx="0" fy="0" gradientUnits="objectBoundingBox" id="paint3_radial_31_15" node-id="52" r="1" rev="8" spreadMethod="pad"><stop offset="0.314853" stop-color="#000000" stop-opacity="0"></stop><stop offset="1" stop-color="#000000"></stop></radialGradient><radialGradient cx="0" cy="0" fx="0" fy="0" gradientUnits="objectBoundingBox" id="paint4_radial_31_15" node-id="55" r="1" rev="7" spreadMethod="pad"><stop offset="0.507903" stop-color="#7d6133" stop-opacity="0"></stop><stop offset="1" stop-color="#715b32"></stop></radialGradient><radialGradient cx="0" cy="0" fx="0" fy="0" gradientUnits="objectBoundingBox" id="paint5_radial_31_15" node-id="58" r="1" rev="6" spreadMethod="pad"><stop offset="0" stop-color="#ffb849"></stop><stop offset="1" stop-color="#ffb847" stop-opacity="0"></stop></radialGradient><radialGradient cx="0" cy="0" fx="0" fy="0" gradientUnits="objectBoundingBox" id="paint6_radial_31_15" node-id="61" r="1" rev="5" spreadMethod="pad"><stop offset="0" stop-color="#ffa64b"></stop><stop offset="0.900412" stop-color="#ffae46" stop-opacity="0"></stop></radialGradient><radialGradient cx="0" cy="0" fx="0" fy="0" gradientUnits="objectBoundingBox" id="paint7_radial_31_15" node-id="64" r="1" rev="4" spreadMethod="pad"><stop offset="0.185425" stop-color="#000000" stop-opacity="0"></stop><stop offset="1" stop-color="#000000" stop-opacity="0.4"></stop></radialGradient><radialGradient cx="0" cy="0" fx="0" fy="0" gradientUnits="objectBoundingBox" id="paint8_radial_31_15" node-id="67" r="1" rev="3" spreadMethod="pad"><stop offset="0" stop-color="#f63711"></stop><stop offset="1" stop-color="#e24a2c" stop-opacity="0"></stop></radialGradient><radialGradient cx="0" cy="0" fx="0" fy="0" gradientUnits="objectBoundingBox" id="paint10_radial_31_15" node-id="74" r="1" rev="2" spreadMethod="pad"><stop offset="0.517632" stop-color="#4e2553"></stop><stop offset="0.702876" stop-color="#5b4852"></stop><stop offset="0.9999999" stop-color="#4e2553"></stop><stop offset="1" stop-color="#4e2553"></stop></radialGradient><radialGradient cx="0" cy="0" fx="0" fy="0" gradientUnits="objectBoundingBox" id="paint11_radial_31_15" node-id="79" r="1" rev="1" spreadMethod="pad"><stop offset="0" stop-color="#ff7291"></stop><stop offset="1" stop-color="#ff7291" stop-opacity="0"></stop></radialGradient><filter filterUnits="objectBoundingBox" height="7.00012" id="filter0_f_31_15" node-id="25" width="10" x="5" y="7"><feFlood color-interpolation-filters="sRGB" flood-color="#000000" flood-opacity="0" result="BackgroundImageFix"></feFlood><feBlend color-interpolation-filters="sRGB" in="SourceGraphic" in2="BackgroundImageFix" mode="normal" result="shape"></feBlend><feGaussianBlur color-interpolation-filters="sRGB" in="shape" result="effect1_foregroundBlur_31_15" stdDeviation="0.75 0.75"></feGaussianBlur></filter><filter filterUnits="objectBoundingBox" height="7.0002403" id="filter1_f_31_15" node-id="29" width="10.0005" x="15.9998" y="7"><feFlood color-interpolation-filters="sRGB" flood-color="#000000" flood-opacity="0" result="BackgroundImageFix"></feFlood><feBlend color-interpolation-filters="sRGB" in="SourceGraphic" in2="BackgroundImageFix" mode="normal" result="shape"></feBlend><feGaussianBlur color-interpolation-filters="sRGB" in="shape" result="effect1_foregroundBlur_31_15" stdDeviation="0.75 0.75"></feGaussianBlur></filter><filter filterUnits="objectBoundingBox" height="5.75006" id="filter2_f_31_15" node-id="33" width="8.75" x="6.375" y="6.875"><feFlood color-interpolation-filters="sRGB" flood-color="#000000" flood-opacity="0" result="BackgroundImageFix"></feFlood><feBlend color-interpolation-filters="sRGB" in="SourceGraphic" in2="BackgroundImageFix" mode="normal" result="shape"></feBlend><feGaussianBlur color-interpolation-filters="sRGB" in="shape" result="effect1_foregroundBlur_31_15" stdDeviation="0.75 0.75"></feGaussianBlur></filter><filter filterUnits="objectBoundingBox" height="5.75006" id="filter3_f_31_15" node-id="37" width="8.75" x="17.375" y="6.875"><feFlood color-interpolation-filters="sRGB" flood-color="#000000" flood-opacity="0" result="BackgroundImageFix"></feFlood><feBlend color-interpolation-filters="sRGB" in="SourceGraphic" in2="BackgroundImageFix" mode="normal" result="shape"></feBlend><feGaussianBlur color-interpolation-filters="sRGB" in="shape" result="effect1_foregroundBlur_31_15" stdDeviation="0.75 0.75"></feGaussianBlur></filter></defs><path d="M 16.00 30.00 L 19.10 29.70 L 21.60 29.10 L 23.80 28.10 L 25.70 26.70 L 27.20 25.00 L 28.40 23.10 L 29.80 18.60 L 30.00 16.00 L 29.80 13.40 L 28.40 8.90 L 27.20 7.00 L 25.70 5.30 L 23.80 3.90 L 21.60 2.90 L 19.10 2.30 L 16.00 2.00 L 12.90 2.30 L 10.40 2.90 L 8.20 3.90 L 6.30 5.30 L 4.80 7.00 L 3.60 8.90 L 2.20 13.40 L 2.00 16.00 L 2.20 18.60 L 3.60 23.10 L 4.80 25.00 L 6.30 26.70 L 8.20 28.10 L 10.40 29.10 L 12.90 29.70 L 16.00 30.00 Z" fill="url(#paint0_radial_31_15)" fill-rule="nonzero" node-id="200" stroke="none" target-height="28" target-width="28" target-x="2" target-y="2"></path><path d="M 16.00 30.00 L 19.10 29.70 L 21.60 29.10 L 23.80 28.10 L 25.70 26.70 L 27.20 25.00 L 28.40 23.10 L 29.80 18.60 L 30.00 16.00 L 29.80 13.40 L 28.40 8.90 L 27.20 7.00 L 25.70 5.30 L 23.80 3.90 L 21.60 2.90 L 19.10 2.30 L 16.00 2.00 L 12.90 2.30 L 10.40 2.90 L 8.20 3.90 L 6.30 5.30 L 4.80 7.00 L 3.60 8.90 L 2.20 13.40 L 2.00 16.00 L 2.20 18.60 L 3.60 23.10 L 4.80 25.00 L 6.30 26.70 L 8.20 28.10 L 10.40 29.10 L 12.90 29.70 L 16.00 30.00 Z" fill="url(#paint1_radial_31_15)" fill-rule="nonzero" node-id="202" stroke="none" target-height="28" target-width="28" target-x="2" target-y="2"></path><path d="M 16.00 30.00 L 19.10 29.70 L 21.60 29.10 L 23.80 28.10 L 25.70 26.70 L 27.20 25.00 L 28.40 23.10 L 29.80 18.60 L 30.00 16.00 L 29.80 13.40 L 28.40 8.90 L 27.20 7.00 L 25.70 5.30 L 23.80 3.90 L 21.60 2.90 L 19.10 2.30 L 16.00 2.00 L 12.90 2.30 L 10.40 2.90 L 8.20 3.90 L 6.30 5.30 L 4.80 7.00 L 3.60 8.90 L 2.20 13.40 L 2.00 16.00 L 2.20 18.60 L 3.60 23.10 L 4.80 25.00 L 6.30 26.70 L 8.20 28.10 L 10.40 29.10 L 12.90 29.70 L 16.00 30.00 Z" fill="url(#paint2_radial_31_15)" fill-rule="nonzero" node-id="204" stroke="none" target-height="28" target-width="28" target-x="2" target-y="2"></path><path d="M 16.00 30.00 L 19.10 29.70 L 21.60 29.10 L 23.80 28.10 L 25.70 26.70 L 27.20 25.00 L 28.40 23.10 L 29.80 18.60 L 30.00 16.00 L 29.80 13.40 L 28.40 8.90 L 27.20 7.00 L 25.70 5.30 L 23.80 3.90 L 21.60 2.90 L 19.10 2.30 L 16.00 2.00 L 12.90 2.30 L 10.40 2.90 L 8.20 3.90 L 6.30 5.30 L 4.80 7.00 L 3.60 8.90 L 2.20 13.40 L 2.00 16.00 L 2.20 18.60 L 3.60 23.10 L 4.80 25.00 L 6.30 26.70 L 8.20 28.10 L 10.40 29.10 L 12.90 29.70 L 16.00 30.00 Z" fill="url(#paint3_radial_31_15)" fill-opacity="0.6" fill-rule="nonzero" node-id="206" stroke="none" target-height="28" target-width="28" target-x="2" target-y="2"></path><path d="M 16.00 30.00 L 19.10 29.70 L 21.60 29.10 L 23.80 28.10 L 25.70 26.70 L 27.20 25.00 L 28.40 23.10 L 29.80 18.60 L 30.00 16.00 L 29.80 13.40 L 28.40 8.90 L 27.20 7.00 L 25.70 5.30 L 23.80 3.90 L 21.60 2.90 L 19.10 2.30 L 16.00 2.00 L 12.90 2.30 L 10.40 2.90 L 8.20 3.90 L 6.30 5.30 L 4.80 7.00 L 3.60 8.90 L 2.20 13.40 L 2.00 16.00 L 2.20 18.60 L 3.60 23.10 L 4.80 25.00 L 6.30 26.70 L 8.20 28.10 L 10.40 29.10 L 12.90 29.70 L 16.00 30.00 Z" fill="url(#paint4_radial_31_15)" fill-rule="nonzero" node-id="208" stroke="none" target-height="28" target-width="28" target-x="2" target-y="2"></path><path d="M 16.00 30.00 L 19.10 29.70 L 21.60 29.10 L 23.80 28.10 L 25.70 26.70 L 27.20 25.00 L 28.40 23.10 L 29.80 18.60 L 30.00 16.00 L 29.80 13.40 L 28.40 8.90 L 27.20 7.00 L 25.70 5.30 L 23.80 3.90 L 21.60 2.90 L 19.10 2.30 L 16.00 2.00 L 12.90 2.30 L 10.40 2.90 L 8.20 3.90 L 6.30 5.30 L 4.80 7.00 L 3.60 8.90 L 2.20 13.40 L 2.00 16.00 L 2.20 18.60 L 3.60 23.10 L 4.80 25.00 L 6.30 26.70 L 8.20 28.10 L 10.40 29.10 L 12.90 29.70 L 16.00 30.00 Z" fill="url(#paint5_radial_31_15)" fill-rule="nonzero" node-id="210" stroke="none" target-height="28" target-width="28" target-x="2" target-y="2"></path><path d="M 16.00 30.00 L 19.10 29.70 L 21.60 29.10 L 23.80 28.10 L 25.70 26.70 L 27.20 25.00 L 28.40 23.10 L 29.80 18.60 L 30.00 16.00 L 29.80 13.40 L 28.40 8.90 L 27.20 7.00 L 25.70 5.30 L 23.80 3.90 L 21.60 2.90 L 19.10 2.30 L 16.00 2.00 L 12.90 2.30 L 10.40 2.90 L 8.20 3.90 L 6.30 5.30 L 4.80 7.00 L 3.60 8.90 L 2.20 13.40 L 2.00 16.00 L 2.20 18.60 L 3.60 23.10 L 4.80 25.00 L 6.30 26.70 L 8.20 28.10 L 10.40 29.10 L 12.90 29.70 L 16.00 30.00 Z" fill="url(#paint6_radial_31_15)" fill-rule="nonzero" node-id="212" stroke="none" target-height="28" target-width="28" target-x="2" target-y="2"></path><path d="M 16.00 30.00 L 19.10 29.70 L 21.60 29.10 L 23.80 28.10 L 25.70 26.70 L 27.20 25.00 L 28.40 23.10 L 29.80 18.60 L 30.00 16.00 L 29.80 13.40 L 28.40 8.90 L 27.20 7.00 L 25.70 5.30 L 23.80 3.90 L 21.60 2.90 L 19.10 2.30 L 16.00 2.00 L 12.90 2.30 L 10.40 2.90 L 8.20 3.90 L 6.30 5.30 L 4.80 7.00 L 3.60 8.90 L 2.20 13.40 L 2.00 16.00 L 2.20 18.60 L 3.60 23.10 L 4.80 25.00 L 6.30 26.70 L 8.20 28.10 L 10.40 29.10 L 12.90 29.70 L 16.00 30.00 Z" fill="url(#paint7_radial_31_15)" fill-rule="nonzero" node-id="214" stroke="none" target-height="28" target-width="28" target-x="2" target-y="2"></path><g node-id="248"><path d="M 7.50 11.50 L 8.40 10.00 L 10.00 9.50 L 11.60 10.00 L 12.50 11.50" fill="none" filter="url(#filter0_f_31_15)" group-id="1" node-id="218" stroke="#9a4609" stroke-linecap="round" stroke-opacity="0.5" stroke-width="2" target-height="2" target-width="5" target-x="7.5" target-y="9.5"></path></g><g node-id="249"><path d="M 18.50 11.50 L 19.50 10.00 L 21.00 9.50 L 22.50 10.00 L 23.50 11.50" fill="none" filter="url(#filter1_f_31_15)" group-id="2" node-id="223" stroke="#9a4609" stroke-linecap="round" stroke-opacity="0.5" stroke-width="2" target-height="2" target-width="5" target-x="18.5" target-y="9.5"></path></g><path d="M 8.00 11.00 L 8.90 9.50 L 10.50 9.00 L 12.10 9.50 L 13.00 11.00" fill="none" node-id="226" stroke="#43273b" stroke-linecap="round" stroke-width="2" target-height="2" target-width="5" target-x="8" target-y="9"></path><g node-id="250"><path d="M 8.30 10.80 L 9.10 9.30 L 10.80 8.80 L 12.40 9.30 L 13.20 10.80" fill="none" filter="url(#filter2_f_31_15)" group-id="3" node-id="230" stroke="#ffffff" stroke-linecap="round" stroke-opacity="0.26" stroke-width="0.75" target-height="2" target-width="4.8999996" target-x="8.3" target-y="8.8"></path></g><path d="M 19.00 11.00 L 20.00 9.50 L 21.50 9.00 L 23.00 9.50 L 24.00 11.00" fill="none" node-id="233" stroke="#43273b" stroke-linecap="round" stroke-width="2" target-height="2" target-width="5" target-x="19" target-y="9"></path><g node-id="251"><path d="M 19.30 10.80 L 20.10 9.30 L 21.80 8.80 L 23.40 9.30 L 24.30 10.80" fill="none" filter="url(#filter3_f_31_15)" group-id="4" node-id="237" stroke="#ffffff" stroke-linecap="round" stroke-opacity="0.26" stroke-width="0.75" target-height="2" target-width="5" target-x="19.3" target-y="8.8"></path></g><path d="M 11.60 18.50 L 18.10 18.50 L 23.50 21.50 L 19.70 29.50 L 10.00 26.00 L 11.60 18.50 Z" fill="url(#paint8_radial_31_15)" fill-rule="nonzero" node-id="240" stroke="none" target-height="11" target-width="13.5" target-x="10" target-y="18.5"></path><path d="M 18.40 22.40 L 15.50 19.50 L 23.50 16.00 L 24.50 18.30 L 24.70 19.80 L 24.40 21.30 L 23.50 22.50 L 22.20 23.30 L 21.20 23.50 L 19.20 23.00 L 18.40 22.40 Z" fill="url(#paint9_linear_31_15)" fill-rule="nonzero" node-id="242" stroke="none" target-height="7.5" target-width="9.200001" target-x="15.5" target-y="16"></path><path d="M 9.00 16.00 L 11.00 17.50 L 12.90 18.20 L 16.00 18.50 L 19.10 18.20 L 21.00 17.50 L 23.00 16.00" fill="none" node-id="244" stroke="url(#paint10_radial_31_15)" stroke-linecap="round" stroke-width="2" target-height="2.5" target-width="14" target-x="9" target-y="16"></path><path d="M 18.20 22.20 L 20.20 23.40 L 22.20 23.30 L 23.50 22.50 L 24.40 21.30 L 24.70 19.80 L 24.20 17.70 L 22.00 17.00 L 20.80 17.20 L 19.20 18.10 L 18.60 19.00 L 18.00 21.00 L 18.20 22.20 Z" fill="url(#paint11_radial_31_15)" fill-rule="evenodd" node-id="246" stroke="none" target-height="6.3999996" target-width="6.700001" target-x="18" target-y="17"></path></svg>