<?xml version="1.0" standalone="no"?><!DOCTYPE svg PUBLIC "-//W3C//DTD SVG 1.1//EN" "http://www.w3.org/Graphics/SVG/1.1/DTD/svg11.dtd"><svg height="32" node-id="1" sillyvg="true" template-height="32" template-width="32" version="1.1" viewBox="0 0 32 32" width="32" xmlns="http://www.w3.org/2000/svg" xmlns:xlink="http://www.w3.org/1999/xlink"><defs node-id="61"><linearGradient gradientUnits="objectBoundingBox" id="paint8_linear_31_1651" node-id="42" spreadMethod="pad" x1="23.5" x2="23.5" y1="8" y2="30"><stop offset="0" stop-color="#6d9dff"></stop><stop offset="1" stop-color="#4864ff"></stop></linearGradient><radialGradient cx="0" cy="0" fx="0" fy="0" gradientUnits="objectBoundingBox" id="paint0_radial_31_1651" node-id="16" r="1" rev="11" spreadMethod="pad"><stop offset="0" stop-color="#fff478"></stop><stop offset="0.474827" stop-color="#ffb02e"></stop><stop offset="1" stop-color="#f70a8d"></stop></radialGradient><radialGradient cx="0" cy="0" fx="0" fy="0" gradientUnits="objectBoundingBox" id="paint1_radial_31_1651" node-id="20" r="1" rev="10" spreadMethod="pad"><stop offset="0" stop-color="#fff478"></stop><stop offset="0.474827" stop-color="#ffb02e"></stop><stop offset="1" stop-color="#f70a8d"></stop></radialGradient><radialGradient cx="0" cy="0" fx="0" fy="0" gradientUnits="objectBoundingBox" id="paint2_radial_31_1651" node-id="24" r="1" rev="9" spreadMethod="pad"><stop offset="0.787821" stop-color="#f59639" stop-opacity="0"></stop><stop offset="0.972509" stop-color="#ff7dce"></stop></radialGradient><radialGradient cx="0" cy="0" fx="0" fy="0" gradientUnits="objectBoundingBox" id="paint3_radial_31_1651" node-id="27" r="1" rev="8" spreadMethod="pad"><stop offset="0.314853" stop-color="#000000" stop-opacity="0"></stop><stop offset="1" stop-color="#000000"></stop></radialGradient><radialGradient cx="0" cy="0" fx="0" fy="0" gradientUnits="objectBoundingBox" id="paint4_radial_31_1651" node-id="30" r="1" rev="7" spreadMethod="pad"><stop offset="0.507903" stop-color="#7d6133" stop-opacity="0"></stop><stop offset="1" stop-color="#715b32"></stop></radialGradient><radialGradient cx="0" cy="0" fx="0" fy="0" gradientUnits="objectBoundingBox" id="paint5_radial_31_1651" node-id="33" r="1" rev="6" spreadMethod="pad"><stop offset="0" stop-color="#ffb849"></stop><stop offset="1" stop-color="#ffb847" stop-opacity="0"></stop></radialGradient><radialGradient cx="0" cy="0" fx="0" fy="0" gradientUnits="objectBoundingBox" id="paint6_radial_31_1651" node-id="36" r="1" rev="5" spreadMethod="pad"><stop offset="0" stop-color="#ffa64b"></stop><stop offset="0.900412" stop-color="#ffae46" stop-opacity="0"></stop></radialGradient><radialGradient cx="0" cy="0" fx="0" fy="0" gradientUnits="objectBoundingBox" id="paint7_radial_31_1651" node-id="39" r="1" rev="4" spreadMethod="pad"><stop offset="0.185425" stop-color="#000000" stop-opacity="0"></stop><stop offset="1" stop-color="#000000" stop-opacity="0.4"></stop></radialGradient><radialGradient cx="0" cy="0" fx="0" fy="0" gradientUnits="objectBoundingBox" id="paint9_radial_31_1651" node-id="45" r="1" rev="3" spreadMethod="pad"><stop offset="0.404968" stop-color="#432552"></stop><stop offset="0.703424" stop-color="#503f44"></stop><stop offset="0.805624" stop-color="#503f44"></stop><stop offset="1" stop-color="#4c342c"></stop></radialGradient><radialGradient cx="0" cy="0" fx="0" fy="0" gradientUnits="objectBoundingBox" id="paint10_radial_31_1651" node-id="50" r="1" rev="2" spreadMethod="pad"><stop offset="0.404968" stop-color="#432552"></stop><stop offset="0.703424" stop-color="#503f44"></stop><stop offset="0.805624" stop-color="#503f44"></stop><stop offset="1" stop-color="#4c342c"></stop></radialGradient><radialGradient cx="0" cy="0" fx="0" fy="0" gradientUnits="objectBoundingBox" id="paint11_radial_31_1651" node-id="55" r="1" rev="1" spreadMethod="pad"><stop offset="0" stop-color="#f70a8d"></stop><stop offset="1" stop-color="#89029c"></stop></radialGradient><clipPath id="clip0_31_1651" node-id="58"><path d="M 0.00 0.00 L 32.00 0.00 L 32.00 32.00 L 0.00 32.00 Z" fill="#000000" fill-rule="nonzero" node-id="148" stroke="none" target-height="32" target-width="32" target-x="0" target-y="0"></path></clipPath></defs><g clip-path="url(#clip0_31_1651)" id="sillyvg_g_0" node-id="152"><path d="M 16.00 30.00 L 19.10 29.70 L 21.60 29.10 L 23.80 28.10 L 25.70 26.70 L 27.20 25.00 L 28.40 23.10 L 29.80 18.60 L 30.00 16.00 L 29.80 13.40 L 28.40 8.90 L 27.20 7.00 L 25.70 5.30 L 23.80 3.90 L 21.60 2.90 L 19.10 2.30 L 16.00 2.00 L 12.90 2.30 L 10.40 2.90 L 8.20 3.90 L 6.30 5.30 L 4.80 7.00 L 3.60 8.90 L 2.20 13.40 L 2.00 16.00 L 2.20 18.60 L 3.60 23.10 L 4.80 25.00 L 6.30 26.70 L 8.20 28.10 L 10.40 29.10 L 12.90 29.70 L 16.00 30.00 Z" fill="url(#paint0_radial_31_1651)" fill-rule="nonzero" node-id="154" stroke="none" target-height="28" target-width="28" target-x="2" target-y="2"></path><path d="M 16.00 30.00 L 19.10 29.70 L 21.60 29.10 L 23.80 28.10 L 25.70 26.70 L 27.20 25.00 L 28.40 23.10 L 29.80 18.60 L 30.00 16.00 L 29.80 13.40 L 28.40 8.90 L 27.20 7.00 L 25.70 5.30 L 23.80 3.90 L 21.60 2.90 L 19.10 2.30 L 16.00 2.00 L 12.90 2.30 L 10.40 2.90 L 8.20 3.90 L 6.30 5.30 L 4.80 7.00 L 3.60 8.90 L 2.20 13.40 L 2.00 16.00 L 2.20 18.60 L 3.60 23.10 L 4.80 25.00 L 6.30 26.70 L 8.20 28.10 L 10.40 29.10 L 12.90 29.70 L 16.00 30.00 Z" fill="url(#paint1_radial_31_1651)" fill-rule="nonzero" node-id="156" stroke="none" target-height="28" target-width="28" target-x="2" target-y="2"></path><path d="M 16.00 30.00 L 19.10 29.70 L 21.60 29.10 L 23.80 28.10 L 25.70 26.70 L 27.20 25.00 L 28.40 23.10 L 29.80 18.60 L 30.00 16.00 L 29.80 13.40 L 28.40 8.90 L 27.20 7.00 L 25.70 5.30 L 23.80 3.90 L 21.60 2.90 L 19.10 2.30 L 16.00 2.00 L 12.90 2.30 L 10.40 2.90 L 8.20 3.90 L 6.30 5.30 L 4.80 7.00 L 3.60 8.90 L 2.20 13.40 L 2.00 16.00 L 2.20 18.60 L 3.60 23.10 L 4.80 25.00 L 6.30 26.70 L 8.20 28.10 L 10.40 29.10 L 12.90 29.70 L 16.00 30.00 Z" fill="url(#paint2_radial_31_1651)" fill-rule="nonzero" node-id="158" stroke="none" target-height="28" target-width="28" target-x="2" target-y="2"></path><path d="M 16.00 30.00 L 19.10 29.70 L 21.60 29.10 L 23.80 28.10 L 25.70 26.70 L 27.20 25.00 L 28.40 23.10 L 29.80 18.60 L 30.00 16.00 L 29.80 13.40 L 28.40 8.90 L 27.20 7.00 L 25.70 5.30 L 23.80 3.90 L 21.60 2.90 L 19.10 2.30 L 16.00 2.00 L 12.90 2.30 L 10.40 2.90 L 8.20 3.90 L 6.30 5.30 L 4.80 7.00 L 3.60 8.90 L 2.20 13.40 L 2.00 16.00 L 2.20 18.60 L 3.60 23.10 L 4.80 25.00 L 6.30 26.70 L 8.20 28.10 L 10.40 29.10 L 12.90 29.70 L 16.00 30.00 Z" fill="url(#paint3_radial_31_1651)" fill-opacity="0.6" fill-rule="nonzero" node-id="160" stroke="none" target-height="28" target-width="28" target-x="2" target-y="2"></path><path d="M 16.00 30.00 L 19.10 29.70 L 21.60 29.10 L 23.80 28.10 L 25.70 26.70 L 27.20 25.00 L 28.40 23.10 L 29.80 18.60 L 30.00 16.00 L 29.80 13.40 L 28.40 8.90 L 27.20 7.00 L 25.70 5.30 L 23.80 3.90 L 21.60 2.90 L 19.10 2.30 L 16.00 2.00 L 12.90 2.30 L 10.40 2.90 L 8.20 3.90 L 6.30 5.30 L 4.80 7.00 L 3.60 8.90 L 2.20 13.40 L 2.00 16.00 L 2.20 18.60 L 3.60 23.10 L 4.80 25.00 L 6.30 26.70 L 8.20 28.10 L 10.40 29.10 L 12.90 29.70 L 16.00 30.00 Z" fill="url(#paint4_radial_31_1651)" fill-rule="nonzero" node-id="162" stroke="none" target-height="28" target-width="28" target-x="2" target-y="2"></path><path d="M 16.00 30.00 L 19.10 29.70 L 21.60 29.10 L 23.80 28.10 L 25.70 26.70 L 27.20 25.00 L 28.40 23.10 L 29.80 18.60 L 30.00 16.00 L 29.80 13.40 L 28.40 8.90 L 27.20 7.00 L 25.70 5.30 L 23.80 3.90 L 21.60 2.90 L 19.10 2.30 L 16.00 2.00 L 12.90 2.30 L 10.40 2.90 L 8.20 3.90 L 6.30 5.30 L 4.80 7.00 L 3.60 8.90 L 2.20 13.40 L 2.00 16.00 L 2.20 18.60 L 3.60 23.10 L 4.80 25.00 L 6.30 26.70 L 8.20 28.10 L 10.40 29.10 L 12.90 29.70 L 16.00 30.00 Z" fill="url(#paint5_radial_31_1651)" fill-rule="nonzero" node-id="164" stroke="none" target-height="28" target-width="28" target-x="2" target-y="2"></path><path d="M 16.00 30.00 L 19.10 29.70 L 21.60 29.10 L 23.80 28.10 L 25.70 26.70 L 27.20 25.00 L 28.40 23.10 L 29.80 18.60 L 30.00 16.00 L 29.80 13.40 L 28.40 8.90 L 27.20 7.00 L 25.70 5.30 L 23.80 3.90 L 21.60 2.90 L 19.10 2.30 L 16.00 2.00 L 12.90 2.30 L 10.40 2.90 L 8.20 3.90 L 6.30 5.30 L 4.80 7.00 L 3.60 8.90 L 2.20 13.40 L 2.00 16.00 L 2.20 18.60 L 3.60 23.10 L 4.80 25.00 L 6.30 26.70 L 8.20 28.10 L 10.40 29.10 L 12.90 29.70 L 16.00 30.00 Z" fill="url(#paint6_radial_31_1651)" fill-rule="nonzero" node-id="166" stroke="none" target-height="28" target-width="28" target-x="2" target-y="2"></path><path d="M 16.00 30.00 L 19.10 29.70 L 21.60 29.10 L 23.80 28.10 L 25.70 26.70 L 27.20 25.00 L 28.40 23.10 L 29.80 18.60 L 30.00 16.00 L 29.80 13.40 L 28.40 8.90 L 27.20 7.00 L 25.70 5.30 L 23.80 3.90 L 21.60 2.90 L 19.10 2.30 L 16.00 2.00 L 12.90 2.30 L 10.40 2.90 L 8.20 3.90 L 6.30 5.30 L 4.80 7.00 L 3.60 8.90 L 2.20 13.40 L 2.00 16.00 L 2.20 18.60 L 3.60 23.10 L 4.80 25.00 L 6.30 26.70 L 8.20 28.10 L 10.40 29.10 L 12.90 29.70 L 16.00 30.00 Z" fill="url(#paint7_radial_31_1651)" fill-rule="nonzero" node-id="168" stroke="none" target-height="28" target-width="28" target-x="2" target-y="2"></path><path d="M 11.00 29.30 L 11.00 8.00 L 6.90 8.10 L 6.10 8.90 L 6.00 9.50 L 6.00 26.40 L 9.10 28.50 L 11.00 29.30 Z M 26.00 26.40 L 22.90 28.50 L 21.00 29.30 L 21.00 8.00 L 24.50 8.00 L 25.10 8.10 L 25.90 8.90 L 26.00 26.40 Z" fill="url(#paint8_linear_31_1651)" fill-rule="evenodd" node-id="170" stroke="none" target-height="21.3" target-width="20" target-x="6" target-y="8"></path><path d="M 6.00 9.00 L 7.20 7.80 L 8.50 7.50 L 9.80 7.80 L 11.00 9.00" fill="none" node-id="172" stroke="url(#paint9_radial_31_1651)" stroke-linecap="round" stroke-width="2" target-height="1.5" target-width="5" target-x="6" target-y="7.5"></path><path d="M 21.00 9.00 L 22.20 7.80 L 23.50 7.50 L 24.80 7.80 L 26.00 9.00" fill="none" node-id="174" stroke="url(#paint10_radial_31_1651)" stroke-linecap="round" stroke-width="2" target-height="1.5" target-width="5" target-x="21" target-y="7.5"></path><path d="M 16.00 11.00 L 17.60 11.30 L 18.80 12.20 L 19.70 13.40 L 20.00 15.00 L 19.70 18.60 L 18.80 19.80 L 17.60 20.70 L 16.00 21.00 L 14.40 20.70 L 13.20 19.80 L 12.30 18.60 L 12.00 17.00 L 12.30 13.40 L 13.20 12.20 L 14.40 11.30 L 16.00 11.00 Z" fill="url(#paint11_radial_31_1651)" fill-rule="nonzero" node-id="176" stroke="none" target-height="10" target-width="8" target-x="12" target-y="11"></path></g></svg>